<?xml version="1.0" encoding="UTF-8"?>
<svg id="Layer_2" data-name="Layer 2" xmlns="http://www.w3.org/2000/svg" xmlns:xlink="http://www.w3.org/1999/xlink" viewBox="0 0 943.32 219.47">
  <defs>
    <style>
      .cls-1 {
        fill: url(#linear-gradient-3);
        stroke: url(#linear-gradient-4);
      }

      .cls-1, .cls-2 {
        stroke-miterlimit: 10;
        stroke-width: 2px;
      }

      .cls-2 {
        fill: url(#linear-gradient);
        stroke: url(#linear-gradient-2);
      }
    </style>
    <linearGradient id="linear-gradient" x1="168.29" y1="218.16" x2="168.29" y2="4.29" gradientUnits="userSpaceOnUse">
      <stop offset="0" stop-color="#50f2fc"/>
      <stop offset="1" stop-color="#1f6591"/>
    </linearGradient>
    <linearGradient id="linear-gradient-2" x1="143.11" y1="111.31" x2="193.45" y2="111.31" gradientUnits="userSpaceOnUse">
      <stop offset="0" stop-color="#50f2fc"/>
      <stop offset="1" stop-color="#2f92d0"/>
    </linearGradient>
    <linearGradient id="linear-gradient-3" x1="90.74" y1="214.87" x2="90.74" y2="1" xlink:href="#linear-gradient"/>
    <linearGradient id="linear-gradient-4" x1="0" y1="108.16" x2="181.48" y2="108.16" xlink:href="#linear-gradient-2"/>
  </defs>
  <g id="Layer_2-2" data-name="Layer 2">
    <g>
      <path class="cls-2" d="M144.98,177.97s-.56,26.79-.84,40.18c16-2.93,31.24-9.26,44.72-18.47,0,0,6.44-192.19,2.09-195.39,0,0-28.48,2.64-35.21,15.33-10.02,30.48-10.06,152-10.75,158.35Z"/>
      <g>
        <path d="M360.58,175.54h-26.82l-10.73-33.85h-49.06l-10.13,33.85h-26.3l47.72-149.45h26.21l49.12,149.45ZM315.06,116.41l-16.92-55.46-16.6,55.46h33.52Z"/>
        <path d="M371.18,182.67l26.91,3.98c.41,3.94,1.65,6.74,3.72,8.41,2.07,1.66,5.35,2.5,9.84,2.5,5.16,0,9.34-.85,12.54-2.55,2.24-1.22,3.98-3.26,5.2-6.12,1.22-2.85,1.83-7.88,1.83-15.09v-15.8c-3.53,5.84-7.51,10.23-11.93,13.15-4.42,2.92-9.31,4.38-14.68,4.38-9.86,0-18.15-4.45-24.87-13.37-7.75-10.2-11.62-24.01-11.62-41.43,0-18.5,3.65-32.46,10.96-41.89,7.3-9.42,16.16-14.13,26.56-14.13,5.51,0,10.52,1.48,15.04,4.44,4.52,2.96,8.55,7.39,12.08,13.3v-15.19h22.02v97.15c0,15.56-1.43,26.84-4.28,33.85-2.85,7-7.26,12.28-13.2,15.85-5.95,3.57-14.19,5.35-24.72,5.35-9.72,0-17.5-1.29-23.35-3.87-5.85-2.58-10.31-6.44-13.41-11.57-3.09-5.13-4.64-11.06-4.64-17.79v-3.57ZM392.19,119.11c0,11.57,1.85,20.01,5.56,25.32,3.7,5.31,8.17,7.96,13.41,7.96,5.64,0,10.46-2.69,14.48-8.07,4.01-5.38,6.01-13.55,6.01-24.5s-1.92-19.65-5.76-25.07c-3.84-5.41-8.58-8.12-14.22-8.12s-10.21,2.65-13.92,7.96c-3.7,5.31-5.56,13.48-5.56,24.5Z"/>
        <path d="M529.61,141.18l23.34,4.79c-3.13,10.87-8,18.94-14.6,24.21-6.6,5.27-14.63,7.9-24.09,7.9-13.13,0-23.27-4.39-30.42-13.17-8.44-10.21-12.66-24.51-12.66-42.89s4.25-32.61,12.74-43.51c7.2-9.19,16.52-13.79,27.93-13.79,12.71,0,22.67,4.7,29.87,14.09,8.29,10.75,12.44,26.61,12.44,47.58l-.1,3.27h-58.82c.13,8.6,2.06,15.25,5.78,19.96,3.72,4.71,8.2,7.06,13.45,7.06,7.57,0,12.61-5.16,15.13-15.5ZM530.83,112.13c-.2-8.46-2.01-14.82-5.4-19.09-3.4-4.26-7.44-6.4-12.13-6.4-4.96,0-9.14,2.22-12.54,6.65-3.47,4.5-5.17,10.78-5.1,18.83h35.17Z"/>
        <path d="M823.64,141.18l23.34,4.79c-3.13,10.87-8,18.94-14.6,24.21-6.6,5.27-14.63,7.9-24.09,7.9-13.13,0-23.27-4.39-30.42-13.17-8.44-10.21-12.66-24.51-12.66-42.89s4.25-32.61,12.74-43.51c7.2-9.19,16.52-13.79,27.93-13.79,12.71,0,22.67,4.7,29.87,14.09,8.29,10.75,12.44,26.61,12.44,47.58l-.1,3.27h-58.82c.13,8.6,2.06,15.25,5.78,19.96,3.72,4.71,8.2,7.06,13.45,7.06,7.57,0,12.61-5.16,15.13-15.5ZM824.86,112.13c-.2-8.46-2.01-14.82-5.4-19.09-3.4-4.26-7.44-6.4-12.13-6.4-4.96,0-9.14,2.22-12.54,6.65-3.47,4.5-5.17,10.78-5.1,18.83h35.17Z"/>
        <path d="M918.75,141.18l23.34,4.79c-3.13,10.87-8,18.94-14.6,24.21-6.6,5.27-14.63,7.9-24.09,7.9-13.13,0-23.27-4.39-30.42-13.17-8.44-10.21-12.66-24.51-12.66-42.89s4.25-32.61,12.74-43.51c7.2-9.19,16.52-13.79,27.93-13.79,12.71,0,22.67,4.7,29.87,14.09,8.29,10.75,12.44,26.61,12.44,47.58l-.1,3.27h-58.82c.13,8.6,2.06,15.25,5.78,19.96,3.72,4.71,8.2,7.06,13.45,7.06,7.57,0,12.61-5.16,15.13-15.5ZM919.97,112.13c-.2-8.46-2.01-14.82-5.4-19.09-3.4-4.26-7.44-6.4-12.13-6.4-4.96,0-9.14,2.22-12.54,6.65-3.47,4.5-5.17,10.78-5.1,18.83h35.17Z"/>
        <path d="M653.98,175.54h-23.55v-55.32c0-11.09-.44-18.47-1.33-22.15-.88-3.67-2.53-6.5-4.94-8.47-2.41-1.97-5.15-2.96-8.21-2.96-3.94,0-7.51,1.28-10.7,3.83-3.19,2.55-5.44,6.07-6.73,10.56-1.29,4.49-1.94,12.96-1.94,25.41v49.09h-23.55v-108.27h21.82v15.8c3.87-6.12,8.24-10.7,13.1-13.76,4.86-3.06,10.25-4.59,16.16-4.59,6.87,0,12.66,1.79,17.38,5.36,4.72,3.57,7.99,8.16,9.79,13.78,1.8,5.61,2.7,13.72,2.7,24.34v67.35Z"/>
        <path d="M755.31,99.18l-23.14,5.1c-1.71-11.35-7.08-17.02-16.1-17.02-5.81,0-10.49,2.46-14.05,7.36-3.56,4.91-5.33,13.19-5.33,24.85,0,12.88,1.77,21.99,5.32,27.3,3.54,5.32,8.28,7.98,14.21,7.98,4.43,0,8.08-1.51,10.94-4.54,2.86-3.02,4.91-8.38,6.14-16.06l23.14,4.79c-4.76,26.1-18.45,39.15-41.08,39.15-14.48,0-25.22-5.52-32.21-16.54-7-11.03-10.5-24.31-10.5-39.83,0-18.58,3.96-32.73,11.89-42.43,7.93-9.7,18.32-14.55,31.18-14.55,10.41,0,18.9,2.75,25.47,8.26,6.57,5.51,11.28,14.24,14.14,26.2Z"/>
      </g>
      <path class="cls-1" d="M89.32,38.05l29.3,96.03c-18.29,0-30.62,0-48.91,0l-13.1,43.78h75.8c3.91,12.34,7.82,24.67,11.74,37.01,14.1-7.5,26.44-17.88,36.22-30.37L121.42,5.15c-9.71-2.7-19.94-4.15-30.51-4.15-11.44,0-22.48,1.7-32.9,4.85L1.11,184.05c9.58,12.36,21.64,22.68,35.45,30.22"/>
    </g>
  </g>
</svg>