<?xml version="1.0" encoding="UTF-8"?>
<svg id="Layer_2" data-name="Layer 2" xmlns="http://www.w3.org/2000/svg" xmlns:xlink="http://www.w3.org/1999/xlink" viewBox="0 0 971.17 255.66">
  <defs>
    <style>
      .cls-1 {
        fill: url(#linear-gradient-3);
        stroke: url(#linear-gradient-4);
      }

      .cls-1, .cls-2 {
        stroke-miterlimit: 10;
        stroke-width: 2px;
      }

      .cls-2 {
        fill: url(#linear-gradient);
        stroke: url(#linear-gradient-2);
      }

      .cls-3 {
        fill: #36c7e4;
      }
    </style>
    <linearGradient id="linear-gradient" x1="209.98" y1="236.24" x2="209.98" y2="19.42" gradientUnits="userSpaceOnUse">
      <stop offset="0" stop-color="#50f2fc"/>
      <stop offset="1" stop-color="#1f6591"/>
    </linearGradient>
    <linearGradient id="linear-gradient-2" x1="184.46" y1="127.92" x2="235.47" y2="127.92" gradientUnits="userSpaceOnUse">
      <stop offset="0" stop-color="#50f2fc"/>
      <stop offset="1" stop-color="#2f92d0"/>
    </linearGradient>
    <linearGradient id="linear-gradient-3" x1="131.35" y1="232.9" x2="131.35" y2="16.08" xlink:href="#linear-gradient"/>
    <linearGradient id="linear-gradient-4" x1="39.37" y1="124.72" x2="223.33" y2="124.72" xlink:href="#linear-gradient-2"/>
  </defs>
  <g id="Layer_2-2" data-name="Layer 2">
    <g>
      <rect class="cls-3" y="0" width="971.17" height="255.66" rx="27.08" ry="27.08"/>
      <path d="M327.36,0H63.53C39.09,0,19.28,20.23,19.28,45.18v165.3c0,24.95,19.81,45.18,44.24,45.18h184.44L327.36,0Z"/>
      <path class="cls-2" d="M186.34,195.5s-.57,27.16-.85,40.74c16.22-2.97,31.67-9.39,45.34-18.73,0,0,6.53-194.84,2.11-198.09,0,0-28.87,2.68-35.7,15.54-10.16,30.9-10.2,154.1-10.9,160.54Z"/>
      <path class="cls-1" d="M129.91,53.64l29.7,97.36c-18.54,0-31.04,0-49.58,0l-13.28,44.38h76.84c3.97,12.51,7.93,25.01,11.9,37.52,14.3-7.6,26.8-18.13,36.72-30.79L162.45,20.29c-9.84-2.74-20.21-4.21-30.93-4.21-11.6,0-22.79,1.72-33.35,4.91l-57.69,180.66c9.71,12.53,21.94,23,35.94,30.64"/>
      <g>
        <path d="M361.93,200.07h-26.82l-10.73-33.85h-49.06l-10.13,33.85h-26.3l47.72-149.45h26.21l49.12,149.45ZM316.41,140.94l-16.92-55.46-16.6,55.46h33.52Z"/>
        <path d="M372.53,207.21l26.91,3.98c.41,3.94,1.65,6.74,3.72,8.41,2.07,1.66,5.35,2.5,9.84,2.5,5.16,0,9.34-.85,12.54-2.55,2.24-1.22,3.98-3.26,5.2-6.12,1.22-2.85,1.83-7.88,1.83-15.09v-15.8c-3.53,5.84-7.51,10.23-11.93,13.15-4.42,2.92-9.31,4.38-14.68,4.38-9.86,0-18.15-4.45-24.87-13.37-7.75-10.2-11.62-24.01-11.62-41.43,0-18.5,3.65-32.46,10.96-41.89,7.3-9.42,16.16-14.13,26.56-14.13,5.51,0,10.52,1.48,15.04,4.44,4.52,2.96,8.55,7.39,12.08,13.3v-15.19h22.02v97.15c0,15.56-1.43,26.84-4.28,33.85-2.85,7-7.26,12.28-13.2,15.85-5.95,3.57-14.19,5.35-24.72,5.35-9.72,0-17.5-1.29-23.35-3.87-5.85-2.58-10.31-6.44-13.41-11.57-3.09-5.13-4.64-11.06-4.64-17.79v-3.57ZM393.53,143.65c0,11.57,1.85,20.01,5.56,25.32,3.7,5.31,8.17,7.96,13.41,7.96,5.64,0,10.46-2.69,14.48-8.07,4.01-5.38,6.01-13.55,6.01-24.5s-1.92-19.65-5.76-25.07c-3.84-5.41-8.58-8.12-14.22-8.12s-10.21,2.65-13.92,7.96c-3.7,5.31-5.56,13.48-5.56,24.5Z"/>
        <path d="M530.95,165.72l23.34,4.79c-3.13,10.87-8,18.94-14.6,24.21-6.6,5.27-14.63,7.9-24.09,7.9-13.13,0-23.27-4.39-30.42-13.17-8.44-10.21-12.66-24.51-12.66-42.89s4.25-32.61,12.74-43.51c7.2-9.19,16.52-13.79,27.93-13.79,12.71,0,22.67,4.7,29.87,14.09,8.29,10.75,12.44,26.61,12.44,47.58l-.1,3.27h-58.82c.13,8.6,2.06,15.25,5.78,19.96,3.72,4.71,8.2,7.06,13.45,7.06,7.57,0,12.61-5.16,15.13-15.5ZM532.17,136.66c-.2-8.46-2.01-14.82-5.4-19.09-3.4-4.26-7.44-6.4-12.13-6.4-4.96,0-9.14,2.22-12.54,6.65-3.47,4.5-5.17,10.78-5.1,18.83h35.17Z"/>
        <path d="M824.98,165.72l23.34,4.79c-3.13,10.87-8,18.94-14.6,24.21-6.6,5.27-14.63,7.9-24.09,7.9-13.13,0-23.27-4.39-30.42-13.17-8.44-10.21-12.66-24.51-12.66-42.89s4.25-32.61,12.74-43.51c7.2-9.19,16.52-13.79,27.93-13.79,12.71,0,22.67,4.7,29.87,14.09,8.29,10.75,12.44,26.61,12.44,47.58l-.1,3.27h-58.82c.13,8.6,2.06,15.25,5.78,19.96,3.72,4.71,8.2,7.06,13.45,7.06,7.57,0,12.61-5.16,15.13-15.5ZM826.21,136.66c-.2-8.46-2.01-14.82-5.4-19.09-3.4-4.26-7.44-6.4-12.13-6.4-4.96,0-9.14,2.22-12.54,6.65-3.47,4.5-5.17,10.78-5.1,18.83h35.17Z"/>
        <path d="M920.09,165.72l23.34,4.79c-3.13,10.87-8,18.94-14.6,24.21-6.6,5.27-14.63,7.9-24.09,7.9-13.13,0-23.27-4.39-30.42-13.17-8.44-10.21-12.66-24.51-12.66-42.89s4.25-32.61,12.74-43.51c7.2-9.19,16.52-13.79,27.93-13.79,12.71,0,22.67,4.7,29.87,14.09,8.29,10.75,12.44,26.61,12.44,47.58l-.1,3.27h-58.82c.13,8.6,2.06,15.25,5.78,19.96,3.72,4.71,8.2,7.06,13.45,7.06,7.57,0,12.61-5.16,15.13-15.5ZM921.32,136.66c-.2-8.46-2.01-14.82-5.4-19.09-3.4-4.26-7.44-6.4-12.13-6.4-4.96,0-9.14,2.22-12.54,6.65-3.47,4.5-5.17,10.78-5.1,18.83h35.17Z"/>
        <path d="M655.33,200.07h-23.55v-55.32c0-11.09-.44-18.47-1.33-22.15-.88-3.67-2.53-6.5-4.94-8.47-2.41-1.97-5.15-2.96-8.21-2.96-3.94,0-7.51,1.28-10.7,3.83-3.19,2.55-5.44,6.07-6.73,10.56-1.29,4.49-1.94,12.96-1.94,25.41v49.09h-23.55v-108.27h21.82v15.8c3.87-6.12,8.24-10.7,13.1-13.76,4.86-3.06,10.25-4.59,16.16-4.59,6.87,0,12.66,1.79,17.38,5.36,4.72,3.57,7.99,8.16,9.79,13.78,1.8,5.61,2.7,13.72,2.7,24.34v67.35Z"/>
        <path d="M756.66,123.72l-23.14,5.1c-1.71-11.35-7.08-17.02-16.1-17.02-5.81,0-10.49,2.46-14.05,7.36-3.56,4.91-5.33,13.19-5.33,24.85,0,12.88,1.77,21.99,5.32,27.3,3.54,5.32,8.28,7.98,14.21,7.98,4.43,0,8.08-1.51,10.94-4.54,2.86-3.02,4.91-8.38,6.14-16.06l23.14,4.79c-4.76,26.1-18.45,39.15-41.08,39.15-14.48,0-25.22-5.52-32.21-16.54-7-11.03-10.5-24.31-10.5-39.83,0-18.58,3.96-32.73,11.89-42.43,7.93-9.7,18.32-14.55,31.18-14.55,10.41,0,18.9,2.75,25.47,8.26,6.57,5.51,11.28,14.24,14.14,26.2Z"/>
      </g>
    </g>
  </g>
</svg>
